<?xml version="1.0" encoding="UTF-8"?>
<svg id="_レイヤー_1" data-name="レイヤー_1" xmlns="http://www.w3.org/2000/svg" viewBox="0 0 170.73 176.82">
  <defs>
    <style>
      .cls-1 {
        fill: #9fa0a0;
      }

      .cls-2 {
        fill: #f39800;
      }

      .cls-3 {
        fill: #b5b5b6;
      }
    </style>
  </defs>
  <g>
    <path class="cls-2" d="M137.07,0h13.26C153.95,0,156.89,2.94,156.89,6.55v40.9h-26.36V6.55C130.52,2.94,133.46,0,137.07,0Z"/>
    <path class="cls-2" d="M106.88,51.06h13.26c3.62,0,6.55,2.94,6.55,6.55v25.08h-26.36v-25.08c0-3.62,2.94-6.55,6.55-6.55Z" transform="translate(227.01 133.74) rotate(180)"/>
    <path class="cls-3" d="M143.99,44.13h13.26c3.62,0,6.55,2.94,6.55,6.55v33.66h-26.36v-33.66c0-3.62,2.94-6.55,6.55-6.55Z" transform="translate(214.86 -86.39) rotate(90)"/>
    <path class="cls-1" d="M96.33,10.55h13.26c3.62,0,6.55,2.94,6.55,6.55v40.9h-26.36V17.1c0-3.62,2.94-6.55,6.55-6.55Z" transform="translate(68.69 137.23) rotate(-90)"/>
  </g>
  <path d="M91.58,176.82h-15.82c-3.33,0-6.04-2.7-6.04-6.04v-87.09c0-3.33-2.7-6.04-6.04-6.04h-29.76c-3.33,0-6.04,2.7-6.04,6.04v87.09c0,3.33-2.7,6.04-6.04,6.04H6.04c-3.33,0-6.04-2.7-6.04-6.04V55.8c0-3.33,2.7-6.04,6.04-6.04h85.54c3.33,0,6.04,2.7,6.04,6.04v114.98c0,3.33-2.7,6.04-6.04,6.04Z"/>
</svg>